<svg width="41" height="40" viewBox="0 0 41 40" fill="none" xmlns="http://www.w3.org/2000/svg">
<path d="M16.2381 6.67415C13.3877 7.66299 10.9295 9.53983 9.22455 12.029C7.51964 14.5182 6.65789 17.4885 6.76588 20.5036C6.87386 23.5188 7.94589 26.4198 9.8245 28.7806C11.7031 31.1415 14.2893 32.8377 17.2031 33.62C19.5655 34.2296 22.0405 34.2564 24.4155 33.6981C26.5669 33.2148 28.556 32.1811 30.188 30.6981C31.8865 29.1076 33.1194 27.0841 33.754 24.8454C34.4436 22.4108 34.5664 19.8505 34.1129 17.3611H20.8472V22.864H28.5298C28.3762 23.7416 28.0472 24.5793 27.5624 25.3268C27.0775 26.0744 26.4469 26.7164 25.7081 27.2145C24.7701 27.8353 23.7126 28.2529 22.6035 28.4404C21.4912 28.6472 20.3503 28.6472 19.238 28.4404C18.1106 28.2075 17.0441 27.7422 16.1066 27.0741C14.6003 26.0079 13.4692 24.493 12.8749 22.7459C12.2706 20.9659 12.2706 19.0363 12.8749 17.2564C13.2979 16.0087 13.9973 14.8728 14.9209 13.9333C15.9777 12.8384 17.3158 12.0557 18.7881 11.6712C20.2605 11.2867 21.8104 11.3152 23.2676 11.7535C24.4061 12.1028 25.4471 12.7134 26.3077 13.5365C27.1739 12.6748 28.0387 11.8107 28.902 10.9445C29.3477 10.4787 29.8336 10.0351 30.2727 9.55818C28.9589 8.33574 27.4169 7.38447 25.7349 6.75884C22.6719 5.64666 19.3204 5.61677 16.2381 6.67415Z" fill="black"/>
<path d="M16.2378 6.67329C19.3199 5.61518 22.6714 5.64428 25.7348 6.75576C27.417 7.38564 28.9584 8.34151 30.2704 9.56852C29.8246 10.0455 29.3543 10.4912 28.8997 10.9548C28.0349 11.8181 27.1708 12.6785 26.3076 13.5358C25.447 12.7127 24.4059 12.1021 23.2675 11.7528C21.8107 11.3129 20.2608 11.2828 18.788 11.6657C17.3152 12.0486 15.9764 12.8299 14.9183 13.9236C13.9948 14.8631 13.2954 15.9991 12.8723 17.2468L8.25195 13.6695C9.90575 10.39 12.7692 7.88136 16.2378 6.67329Z" fill="#E33629"/>
<path d="M7.02637 17.2137C7.27452 15.9829 7.68682 14.791 8.25221 13.6699L12.8725 17.2561C12.2683 19.036 12.2683 20.9657 12.8725 22.7456C11.3332 23.9343 9.79306 25.129 8.25221 26.3296C6.83725 23.5131 6.40572 20.304 7.02637 17.2137Z" fill="#F8BD00"/>
<path d="M20.8467 17.3574H34.1126C34.5661 19.8469 34.4434 22.4071 33.7537 24.8418C33.1191 27.0806 31.8862 29.104 30.1876 30.6946C28.6966 29.5312 27.1988 28.3767 25.7077 27.2132C26.447 26.7146 27.0779 26.0718 27.5628 25.3235C28.0477 24.5751 28.3764 23.7366 28.5294 22.8581H20.8467C20.8445 21.026 20.8467 19.1917 20.8467 17.3574Z" fill="#587DBD"/>
<path d="M8.25 26.33C9.79085 25.1413 11.331 23.9467 12.8703 22.7461C13.4659 24.4939 14.5986 26.0088 16.1066 27.0744C17.047 27.7394 18.1158 28.201 19.2447 28.4296C20.357 28.6364 21.4979 28.6364 22.6102 28.4296C23.7194 28.2421 24.7769 27.8245 25.715 27.2037C27.206 28.3672 28.7038 29.5217 30.1949 30.6851C28.5631 32.1689 26.574 33.2034 24.4223 33.6873C22.0473 34.2457 19.5722 34.2189 17.2098 33.6093C15.3414 33.1105 13.5962 32.231 12.0836 31.0261C10.4827 29.7549 9.17503 28.153 8.25 26.33Z" fill="#319F43"/>
</svg>
